<svg width="22" height="27" viewBox="0 0 22 27" fill="none" xmlns="http://www.w3.org/2000/svg">
<path d="M19.1842 15.3811V11.1711C19.1823 9.29419 18.5164 7.47851 17.3042 6.04559C16.092 4.61267 14.4118 3.65496 12.5612 3.34206V1.89607C12.566 1.71907 12.5354 1.54289 12.471 1.37794C12.4066 1.21299 12.3099 1.06262 12.1864 0.935709C12.0629 0.808798 11.9153 0.707921 11.7521 0.639039C11.589 0.570157 11.4137 0.534668 11.2367 0.534668C11.0596 0.534668 10.8843 0.570157 10.7212 0.639039C10.5581 0.707921 10.4105 0.808798 10.287 0.935709C10.1635 1.06262 10.0667 1.21299 10.0024 1.37794C9.93798 1.54289 9.90732 1.71907 9.91218 1.89607V3.34007C8.06086 3.65259 6.37995 4.61041 5.16732 6.04379C3.95468 7.47717 3.28863 9.29355 3.28718 11.1711V15.3811C2.51417 15.6544 1.84463 16.1602 1.37038 16.8291C0.896127 17.498 0.640373 18.2971 0.638184 19.1171V21.7711C0.639506 22.1216 0.779688 22.4573 1.02803 22.7048C1.27637 22.9522 1.61264 23.0911 1.96318 23.0911H6.12318C6.42894 24.213 7.09519 25.2032 8.01924 25.9091C8.94329 26.615 10.0738 26.9975 11.2367 26.9975C12.3995 26.9975 13.5301 26.615 14.4541 25.9091C15.3782 25.2032 16.0444 24.213 16.3502 23.0911H20.5102C20.8612 23.0919 21.1983 22.9533 21.4473 22.7058C21.6963 22.4583 21.8369 22.1221 21.8382 21.7711V19.1171C21.836 18.2971 21.5802 17.498 21.106 16.8291C20.6317 16.1602 19.9622 15.6544 19.1892 15.3811H19.1842ZM5.93818 11.1711C5.93818 10.4751 6.07527 9.78587 6.34162 9.14284C6.60797 8.49982 6.99837 7.91555 7.49052 7.4234C7.98267 6.93125 8.56694 6.54085 9.20996 6.2745C9.85299 6.00815 10.5422 5.87106 11.2382 5.87106C11.9342 5.87106 12.6234 6.00815 13.2664 6.2745C13.9094 6.54085 14.4937 6.93125 14.9858 7.4234C15.478 7.91555 15.8684 8.49982 16.1347 9.14284C16.4011 9.78587 16.5382 10.4751 16.5382 11.1711V15.1451H5.93818V11.1711ZM11.2382 24.4181C10.7759 24.4152 10.3224 24.2914 9.92272 24.0589C9.52309 23.8265 9.19125 23.4935 8.96018 23.0931H13.5172C13.2858 23.4933 12.9537 23.826 12.5539 24.0581C12.1541 24.2902 11.7005 24.4136 11.2382 24.4161V24.4181ZM19.1862 20.4441H3.28718V19.1171C3.28718 18.7657 3.42678 18.4286 3.67527 18.1801C3.92375 17.9317 4.26077 17.7921 4.61218 17.7921H17.8592C18.2106 17.7921 18.5476 17.9317 18.7961 18.1801C19.0446 18.4286 19.1842 18.7657 19.1842 19.1171L19.1862 20.4441Z" fill="#676C86"/>
</svg>
