<svg width="18" height="19" viewBox="0 0 18 19" fill="none" xmlns="http://www.w3.org/2000/svg">
<path opacity="0.496" d="M6.58161 15.7928C6.29423 15.7928 6.01331 15.878 5.77437 16.0377C5.53542 16.1973 5.34919 16.4243 5.23921 16.6898C5.12924 16.9553 5.10046 17.2474 5.15653 17.5293C5.21259 17.8111 5.35098 18.07 5.55418 18.2732C5.75739 18.4764 6.01629 18.6148 6.29814 18.6709C6.58 18.7269 6.87215 18.6982 7.13765 18.5882C7.40315 18.4782 7.63008 18.292 7.78973 18.053C7.94939 17.8141 8.03461 17.5332 8.03461 17.2458C8.03461 16.8604 7.88153 16.4909 7.60904 16.2184C7.33654 15.9459 6.96697 15.7928 6.58161 15.7928ZM16.7496 12.8878H5.12961C4.87275 12.8878 4.62641 12.7858 4.44478 12.6041C4.26315 12.4225 4.16111 12.1762 4.16111 11.9193C4.16111 11.6624 4.26315 11.4161 4.44478 11.2345C4.62641 11.0528 4.87275 10.9508 5.12961 10.9508H13.3516C13.9823 10.9486 14.5954 10.7422 15.0989 10.3623C15.6024 9.98246 15.9693 9.44969 16.1446 8.8438L17.6796 3.4698C17.721 3.32565 17.7283 3.17386 17.701 3.02641C17.6736 2.87895 17.6124 2.73986 17.5221 2.6201C17.4319 2.50035 17.315 2.40321 17.1808 2.33634C17.0465 2.26948 16.8986 2.23472 16.7486 2.2348H4.87661C4.67596 1.67096 4.30639 1.18267 3.81824 0.836416C3.33009 0.490166 2.74708 0.30279 2.14861 0.299805H1.25561C0.998747 0.299805 0.752405 0.401843 0.570776 0.583472C0.389147 0.765101 0.287109 1.01144 0.287109 1.2683C0.287109 1.52517 0.389147 1.77151 0.570776 1.95314C0.752405 2.13477 0.998747 2.2368 1.25561 2.2368H2.14761C2.35754 2.23743 2.56163 2.30594 2.72943 2.4321C2.89722 2.55826 3.01971 2.73531 3.07861 2.9368L3.22961 3.4638L4.81861 9.0238C4.07995 9.10407 3.40012 9.46431 2.91892 10.0305C2.43773 10.5966 2.19176 11.3256 2.23159 12.0675C2.27142 12.8095 2.59403 13.508 3.13307 14.0193C3.67211 14.5307 4.3866 14.8161 5.12961 14.8168H16.7496C17.0065 14.8168 17.2528 14.7148 17.4344 14.5331C17.6161 14.3515 17.7181 14.1052 17.7181 13.8483C17.7181 13.5914 17.6161 13.3451 17.4344 13.1635C17.2528 12.9818 17.0065 12.8798 16.7496 12.8798V12.8878ZM15.4656 4.1728L14.2876 8.3118C14.2287 8.5133 14.1062 8.69035 13.9384 8.81651C13.7706 8.94267 13.5665 9.01118 13.3566 9.0118H6.82861L6.58161 8.1478L5.44561 4.1728H15.4656ZM14.3286 15.7928C14.0412 15.7928 13.7603 15.878 13.5214 16.0377C13.2824 16.1973 13.0962 16.4243 12.9862 16.6898C12.8762 16.9553 12.8475 17.2474 12.9035 17.5293C12.9596 17.8111 13.098 18.07 13.3012 18.2732C13.5044 18.4764 13.7633 18.6148 14.0451 18.6709C14.327 18.7269 14.6191 18.6982 14.8846 18.5882C15.1501 18.4782 15.3771 18.292 15.5367 18.053C15.6964 17.8141 15.7816 17.5332 15.7816 17.2458C15.7816 16.8604 15.6285 16.4909 15.356 16.2184C15.0835 15.9459 14.714 15.7928 14.3286 15.7928Z" fill="#FFFFFF"/>
</svg>
