<svg width="19" height="19" viewBox="0 0 19 19" fill="none" xmlns="http://www.w3.org/2000/svg">
<path d="M5.22724 7.59995C5.89488 7.59995 6.54752 7.40194 7.1026 7.03095C7.65769 6.65997 8.09027 6.13269 8.34562 5.51581C8.60098 4.89894 8.66764 4.22018 8.53717 3.56542C8.4067 2.91065 8.08497 2.30929 7.61267 1.83741C7.14036 1.36552 6.53872 1.04432 5.88383 0.914436C5.22895 0.78455 4.55026 0.851814 3.93361 1.10772C3.31696 1.36363 2.79006 1.79667 2.41957 2.35209C2.04909 2.9075 1.85165 3.56031 1.85224 4.22795C1.85304 5.12254 2.20897 5.98021 2.84182 6.6125C3.47467 7.24478 4.33266 7.59995 5.22724 7.59995ZM5.22724 3.09995C5.44949 3.10054 5.66658 3.16695 5.85113 3.2908C6.03567 3.41464 6.1794 3.59037 6.26418 3.79582C6.34895 4.00126 6.37098 4.22721 6.32748 4.44516C6.28397 4.66311 6.17689 4.86329 6.01973 5.02044C5.86258 5.1776 5.6624 5.28468 5.44445 5.32818C5.2265 5.37169 5.00055 5.34966 4.79511 5.26489C4.58966 5.18011 4.41393 5.03638 4.29009 4.85184C4.16625 4.66729 4.09984 4.4502 4.09924 4.22795C4.09885 4.07971 4.12775 3.93285 4.1843 3.79582C4.24085 3.65878 4.32392 3.53428 4.42874 3.42945C4.53357 3.32463 4.65807 3.24156 4.79511 3.18501C4.93214 3.12846 5.079 3.09956 5.22724 3.09995ZM14.7722 10.4C14.1047 10.4 13.4522 10.5979 12.8972 10.9687C12.3422 11.3396 11.9096 11.8667 11.6542 12.4834C11.3987 13.1001 11.3319 13.7787 11.4621 14.4334C11.5923 15.0881 11.9138 15.6894 12.3858 16.1614C12.8578 16.6334 13.4591 16.9549 14.1138 17.0851C14.7685 17.2153 15.4471 17.1485 16.0638 16.893C16.6805 16.6376 17.2076 16.205 17.5785 15.65C17.9493 15.095 18.1472 14.4425 18.1472 13.775C18.1472 12.8798 17.7917 12.0214 17.1587 11.3885C16.5258 10.7555 15.6673 10.4 14.7722 10.4ZM14.7722 14.9C14.5499 14.8996 14.3327 14.8333 14.148 14.7095C13.9633 14.5858 13.8194 14.41 13.7345 14.2045C13.6496 13.9991 13.6275 13.773 13.671 13.555C13.7144 13.3369 13.8215 13.1367 13.9788 12.9795C14.136 12.8222 14.3362 12.7151 14.5543 12.6717C14.7723 12.6282 14.9984 12.6503 15.2038 12.7352C15.4093 12.8201 15.585 12.964 15.7088 13.1487C15.8326 13.3334 15.8988 13.5506 15.8992 13.773C15.8995 13.921 15.8705 14.0677 15.814 14.2045C15.7574 14.3414 15.6744 14.4657 15.5697 14.5704C15.465 14.6752 15.3407 14.7582 15.2038 14.8147C15.067 14.8712 14.9203 14.9002 14.7722 14.9ZM18.6722 0.331951C18.5678 0.227484 18.4438 0.144616 18.3073 0.0880785C18.1708 0.0315411 18.0245 0.00244141 17.8767 0.00244141C17.729 0.00244141 17.5827 0.0315411 17.4462 0.0880785C17.3097 0.144616 17.1857 0.227484 17.0812 0.331951L1.32924 16.08C1.22048 16.1834 1.13352 16.3075 1.07346 16.4451C1.01341 16.5826 0.981493 16.7308 0.979583 16.8809C0.977673 17.031 1.00581 17.1799 1.06234 17.3189C1.11887 17.458 1.20265 17.5843 1.30875 17.6904C1.41484 17.7966 1.54111 17.8805 1.6801 17.9371C1.8191 17.9937 1.96803 18.0219 2.1181 18.0201C2.26818 18.0183 2.41637 17.9865 2.55396 17.9265C2.69155 17.8665 2.81575 17.7796 2.91924 17.671L18.6702 1.91995C18.7747 1.81549 18.8576 1.69147 18.9141 1.55497C18.9707 1.41848 18.9998 1.27219 18.9998 1.12445C18.9998 0.976713 18.9707 0.830421 18.9141 0.693929C18.8576 0.557437 18.7747 0.433417 18.6702 0.328951L18.6722 0.331951Z" fill="#676C86"/>
</svg>
