<svg width="20" height="21" viewBox="0 0 20 21" fill="none" xmlns="http://www.w3.org/2000/svg">
<path d="M17.088 2.95506C17.081 2.94706 17.078 2.93706 17.071 2.92906C17.064 2.92106 17.053 2.91906 17.045 2.91206C15.1745 1.04779 12.6413 0.000976563 10.0005 0.000976562C7.35962 0.000976563 4.82645 1.04779 2.95598 2.91206C2.94798 2.91906 2.93798 2.92206 2.92998 2.92906C2.92198 2.93606 2.91998 2.94706 2.91298 2.95506C1.51925 4.35549 0.571605 6.13739 0.189636 8.07589C-0.192333 10.0144 0.00849736 12.0226 0.76678 13.8471C1.52506 15.6715 2.80681 17.2305 4.45026 18.3272C6.09371 19.4239 8.02521 20.0092 10.001 20.0092C11.9768 20.0092 13.9082 19.4239 15.5517 18.3272C17.1952 17.2305 18.4769 15.6715 19.2352 13.8471C19.9935 12.0226 20.1943 10.0144 19.8123 8.07589C19.4304 6.13739 18.4827 4.35549 17.089 2.95506H17.088ZM9.99998 18.0001C8.80225 17.9996 7.61996 17.7298 6.54066 17.2105C5.46136 16.6912 4.51272 15.9357 3.76498 15.0001H7.77998C8.0581 15.3143 8.39977 15.5659 8.78239 15.7382C9.16501 15.9105 9.57985 15.9996 9.99948 15.9996C10.4191 15.9996 10.834 15.9105 11.2166 15.7382C11.5992 15.5659 11.9409 15.3143 12.219 15.0001H16.234C15.4863 15.9356 14.5379 16.691 13.4588 17.2103C12.3796 17.7296 11.1975 17.9995 9.99998 18.0001ZM8.99998 13.0001C8.99998 12.8023 9.05863 12.6089 9.16851 12.4445C9.27839 12.28 9.43457 12.1519 9.6173 12.0762C9.80002 12.0005 10.0011 11.9807 10.1951 12.0193C10.3891 12.0579 10.5672 12.1531 10.7071 12.293C10.8469 12.4328 10.9422 12.611 10.9808 12.805C11.0194 12.9989 10.9995 13.2 10.9239 13.3827C10.8482 13.5655 10.72 13.7216 10.5556 13.8315C10.3911 13.9414 10.1978 14.0001 9.99998 14.0001C9.73476 14.0001 9.48041 13.8947 9.29287 13.7072C9.10534 13.5196 8.99998 13.2653 8.99998 13.0001ZM17.41 13.0001H17.4H13C12.9974 12.3818 12.8039 11.7794 12.4459 11.2754C12.0879 10.7713 11.5829 10.3901 11 10.1841V7.00006C11 6.73484 10.8946 6.48049 10.7071 6.29295C10.5196 6.10542 10.2652 6.00006 9.99998 6.00006C9.73476 6.00006 9.48041 6.10542 9.29287 6.29295C9.10534 6.48049 8.99998 6.73484 8.99998 7.00006V10.1841C8.41707 10.3901 7.91207 10.7713 7.55407 11.2754C7.19607 11.7794 7.00254 12.3818 6.99998 13.0001H2.59998H2.58998C2.33017 12.3589 2.15535 11.6866 2.06998 11.0001H2.99998C3.2652 11.0001 3.51955 10.8947 3.70709 10.7072C3.89462 10.5196 3.99998 10.2653 3.99998 10.0001C3.99998 9.73484 3.89462 9.48049 3.70709 9.29295C3.51955 9.10542 3.2652 9.00006 2.99998 9.00006H2.06898C2.24756 7.5778 2.8073 6.23026 3.68898 5.10006L4.34398 5.75506C4.53414 5.92749 4.78333 6.02018 5.03996 6.01396C5.29658 6.00773 5.54098 5.90305 5.72255 5.72161C5.90413 5.54016 6.00898 5.29583 6.01538 5.03922C6.02179 4.7826 5.92927 4.53334 5.75698 4.34306L5.09998 3.68806C6.23032 2.80678 7.57783 2.24739 8.99998 2.06906V3.00006C8.99998 3.26528 9.10534 3.51963 9.29287 3.70717C9.48041 3.8947 9.73476 4.00006 9.99998 4.00006C10.2652 4.00006 10.5196 3.8947 10.7071 3.70717C10.8946 3.51963 11 3.26528 11 3.00006V2.06906C12.4221 2.24739 13.7696 2.80678 14.9 3.68806L14.245 4.34306C14.0628 4.53166 13.962 4.78426 13.9643 5.04646C13.9666 5.30866 14.0718 5.55947 14.2572 5.74488C14.4426 5.93029 14.6934 6.03545 14.9556 6.03773C15.2178 6.04001 15.4704 5.93922 15.659 5.75706L16.314 5.10206C17.1943 6.23202 17.7529 7.57879 17.931 9.00006H17C16.7348 9.00006 16.4804 9.10542 16.2929 9.29295C16.1053 9.48049 16 9.73484 16 10.0001C16 10.2653 16.1053 10.5196 16.2929 10.7072C16.4804 10.8947 16.7348 11.0001 17 11.0001H17.931C17.8456 11.6866 17.6698 12.3589 17.41 13.0001Z" fill="#676C86"/>
</svg>
