<svg width="20" height="21" viewBox="0 0 20 21" fill="none" xmlns="http://www.w3.org/2000/svg">
<path d="M18.994 10.006C18.7288 10.006 18.4744 10.1113 18.2869 10.2989C18.0994 10.4864 17.994 10.7408 17.994 11.006V17.006C17.994 17.2712 17.8886 17.5256 17.7011 17.7131C17.5136 17.9006 17.2592 18.006 16.994 18.006H3C2.73478 18.006 2.48043 17.9006 2.29289 17.7131C2.10536 17.5256 2 17.2712 2 17.006V3.00598C2 2.74076 2.10536 2.48641 2.29289 2.29887C2.48043 2.11134 2.73478 2.00598 3 2.00598H9C9.26522 2.00598 9.51957 1.90062 9.70711 1.71309C9.89464 1.52555 10 1.2712 10 1.00598C10 0.740765 9.89464 0.486411 9.70711 0.298875C9.51957 0.111338 9.26522 0.00598145 9 0.00598145H3C2.20435 0.00598145 1.44129 0.322052 0.87868 0.884661C0.316071 1.44727 0 2.21033 0 3.00598V17.006C0 17.8016 0.316071 18.5647 0.87868 19.1273C1.44129 19.6899 2.20435 20.006 3 20.006H17C17.7956 20.006 18.5587 19.6899 19.1213 19.1273C19.6839 18.5647 20 17.8016 20 17.006V11.006C20 10.8742 19.9739 10.7436 19.9233 10.6219C19.8727 10.5002 19.7985 10.3897 19.705 10.2967C19.6115 10.2038 19.5005 10.1303 19.3785 10.0804C19.2565 10.0305 19.1258 10.0052 18.994 10.006V10.006ZM3.994 10.766V15.006C3.994 15.2712 4.09936 15.5256 4.28689 15.7131C4.47443 15.9006 4.72878 16.006 4.994 16.006H9.233C9.36461 16.0067 9.49507 15.9815 9.61691 15.9318C9.73874 15.882 9.84956 15.8087 9.943 15.716L16.861 8.78798L19.7 6.00598C19.7937 5.91302 19.8681 5.80242 19.9189 5.68056C19.9697 5.5587 19.9958 5.42799 19.9958 5.29598C19.9958 5.16397 19.9697 5.03326 19.9189 4.9114C19.8681 4.78955 19.7937 4.67894 19.7 4.58598L15.466 0.295981C15.373 0.202253 15.2624 0.127859 15.1406 0.07709C15.0187 0.0263213 14.888 0.000183105 14.756 0.000183105C14.624 0.000183105 14.4933 0.0263213 14.3714 0.07709C14.2496 0.127859 14.139 0.202253 14.046 0.295981L11.227 3.12498L4.289 10.053C4.1965 10.1465 4.12336 10.2574 4.07377 10.3792C4.02418 10.501 3.99911 10.6314 4 10.763L3.994 10.766ZM14.756 2.41498L17.585 5.24398L16.165 6.66398L13.336 3.83498L14.756 2.41498ZM6 11.173L11.928 5.24498L14.757 8.07398L8.827 14.006H6V11.173Z" fill="#676C86"/>
</svg>
