<svg width="20" height="18" viewBox="0 0 20 18" fill="none" xmlns="http://www.w3.org/2000/svg">
<path d="M18.1762 1.99435C17.1157 0.93062 15.7096 0.281391 14.2121 0.164013C12.7146 0.0466349 11.2245 0.468852 10.0112 1.35435C8.73815 0.411522 7.15549 -0.0146493 5.58115 0.161447C4.00681 0.337543 2.55743 1.10286 1.52416 2.30365C0.490891 3.50445 -0.0497115 5.05176 0.0109521 6.63476C0.0716158 8.21775 0.729052 9.71915 1.85119 10.8373L8.06319 17.0593C8.58333 17.5709 9.28365 17.8576 10.0132 17.8576C10.7427 17.8576 11.443 17.5709 11.9632 17.0593L18.1752 10.8373C19.3429 9.66227 19.9983 8.07295 19.9983 6.41635C19.9983 4.75974 19.3429 3.17042 18.1752 1.99535L18.1762 1.99435ZM16.7662 9.45635L10.5542 15.6683C10.4835 15.7397 10.3994 15.7963 10.3067 15.835C10.214 15.8737 10.1146 15.8936 10.0142 15.8936C9.91376 15.8936 9.81433 15.8737 9.72165 15.835C9.62896 15.7963 9.54486 15.7397 9.47419 15.6683L3.26219 9.42635C2.4995 8.62403 2.08047 7.55548 2.09448 6.44859C2.10848 5.3417 2.55442 4.28408 3.33717 3.50133C4.11993 2.71858 5.17754 2.27264 6.28443 2.25863C7.39132 2.24462 8.45988 2.66365 9.26219 3.42635C9.35515 3.52007 9.46575 3.59447 9.58761 3.64524C9.70947 3.69601 9.84018 3.72214 9.97219 3.72214C10.1042 3.72214 10.2349 3.69601 10.3568 3.64524C10.4786 3.59447 10.5892 3.52007 10.6822 3.42635C11.481 2.63461 12.5598 2.18983 13.6845 2.18851C14.8092 2.1872 15.889 2.62946 16.6897 3.41932C17.4903 4.20918 17.9472 5.28292 17.9612 6.40752C17.9751 7.53213 17.545 8.61687 16.7642 9.42635L16.7662 9.45635Z" fill="#676C86"/>
</svg>
