<svg width="17" height="20" viewBox="0 0 17 20" fill="none" xmlns="http://www.w3.org/2000/svg">
<path d="M8.82602 14.809C8.78145 14.7679 8.73287 14.7314 8.68102 14.7C8.63449 14.6639 8.58205 14.6362 8.52602 14.618C8.47184 14.5901 8.41336 14.5715 8.35302 14.563C8.17887 14.5263 7.99759 14.5456 7.83502 14.618C7.72218 14.6588 7.61969 14.724 7.53484 14.8088C7.44999 14.8937 7.38484 14.9962 7.34402 15.109C7.29312 15.2167 7.26812 15.3349 7.27102 15.454C7.26975 15.5721 7.29149 15.6892 7.33502 15.799C7.38773 15.9076 7.45502 16.0086 7.53502 16.099C7.61988 16.1833 7.72054 16.25 7.83122 16.2953C7.9419 16.3406 8.06043 16.3636 8.18002 16.363C8.29914 16.3659 8.41729 16.3409 8.52502 16.29C8.6352 16.2439 8.73667 16.1793 8.82502 16.099C8.98987 15.9245 9.0817 15.6935 9.0817 15.4535C9.0817 15.2135 8.98987 14.9825 8.82502 14.808L8.82602 14.809ZM5.04402 11.064C4.99749 11.0279 4.94504 11.0002 4.88902 10.982C4.83601 10.9478 4.77748 10.9231 4.71602 10.909C4.59925 10.8818 4.47779 10.8818 4.36102 10.909L4.19702 10.964L4.03302 11.046L3.89702 11.155C3.72642 11.3338 3.63178 11.5718 3.63302 11.819C3.63243 11.9386 3.65545 12.0571 3.70075 12.1678C3.74605 12.2785 3.81275 12.3791 3.89702 12.464C3.98538 12.5443 4.08684 12.6089 4.19702 12.655C4.33474 12.7117 4.48428 12.7337 4.63249 12.719C4.78069 12.7044 4.92303 12.6535 5.04698 12.5709C5.17093 12.4884 5.27269 12.3766 5.34332 12.2455C5.41394 12.1144 5.45127 11.9679 5.45202 11.819C5.44842 11.5784 5.35413 11.3481 5.18802 11.174L5.04402 11.064ZM5.18902 14.809C5.07826 14.7081 4.94704 14.6323 4.80433 14.5868C4.66161 14.5412 4.51075 14.527 4.36202 14.545L4.19902 14.6C4.14096 14.6199 4.0858 14.6475 4.03502 14.682C3.98753 14.7155 3.94211 14.7519 3.89902 14.791C3.81622 14.8774 3.75132 14.9794 3.70802 15.091C3.65994 15.1998 3.63511 15.3175 3.63511 15.4365C3.63511 15.5555 3.65994 15.6732 3.70802 15.782C3.75408 15.8922 3.81868 15.9936 3.89902 16.082C3.98239 16.1695 4.08237 16.2395 4.19312 16.288C4.30387 16.3364 4.42316 16.3622 4.54402 16.364C4.66314 16.3669 4.78129 16.3419 4.88902 16.291C5.0018 16.2501 5.10422 16.1849 5.18906 16.1C5.2739 16.0152 5.33909 15.9128 5.38002 15.8C5.4281 15.6912 5.45294 15.5735 5.45294 15.4545C5.45294 15.3355 5.4281 15.2178 5.38002 15.109C5.33673 14.9974 5.27182 14.8954 5.18902 14.809ZM7.83402 10.982C7.72242 11.0253 7.62047 11.0902 7.53402 11.173C7.36791 11.3471 7.27363 11.5774 7.27002 11.818C7.27077 11.9669 7.3081 12.1134 7.37873 12.2445C7.44936 12.3756 7.55112 12.4874 7.67507 12.57C7.79902 12.6525 7.94135 12.7034 8.08956 12.718C8.23777 12.7327 8.38731 12.7107 8.52502 12.654C8.6352 12.6079 8.73667 12.5433 8.82502 12.463C8.9093 12.3781 8.97599 12.2775 9.02129 12.1668C9.0666 12.0561 9.08961 11.9376 9.08902 11.818C9.08542 11.5774 8.99113 11.3471 8.82502 11.173C8.69719 11.0468 8.53484 10.9613 8.35847 10.9273C8.18209 10.8933 7.9996 10.9124 7.83402 10.982ZM12.461 14.809C12.3727 14.7287 12.2712 14.6641 12.161 14.618C12.0516 14.5691 11.9334 14.543 11.8136 14.5414C11.6937 14.5398 11.5748 14.5627 11.4642 14.6086C11.3535 14.6546 11.2534 14.7227 11.1699 14.8087C11.0865 14.8948 11.0216 14.997 10.979 15.109C10.9309 15.2178 10.9061 15.3355 10.9061 15.4545C10.9061 15.5735 10.9309 15.6912 10.979 15.8C11.0251 15.9102 11.0897 16.0116 11.17 16.1C11.2549 16.1843 11.3555 16.251 11.4662 16.2963C11.5769 16.3416 11.6954 16.3646 11.815 16.364C11.9341 16.3669 12.0523 16.3419 12.16 16.291C12.2702 16.2449 12.3717 16.1803 12.46 16.1C12.6249 15.9255 12.7167 15.6945 12.7167 15.4545C12.7167 15.2145 12.6249 14.9835 12.46 14.809H12.461ZM11.817 3.636H4.54402C4.30294 3.636 4.07173 3.73177 3.90126 3.90224C3.73079 4.07271 3.63502 4.30392 3.63502 4.545V8.182C3.63502 8.42308 3.73079 8.65429 3.90126 8.82476C4.07173 8.99523 4.30294 9.091 4.54402 9.091H11.817C12.0581 9.091 12.2893 8.99523 12.4598 8.82476C12.6303 8.65429 12.726 8.42308 12.726 8.182V4.545C12.726 4.30392 12.6303 4.07271 12.4598 3.90224C12.2893 3.73177 12.0581 3.636 11.817 3.636ZM10.908 7.272H5.45402V5.455H10.909L10.908 7.272ZM13.635 0H2.72602C2.00278 0 1.30915 0.287308 0.797743 0.79872C0.286332 1.31013 -0.000976562 2.00375 -0.000976562 2.727V17.273C-0.000976562 17.9962 0.286332 18.6899 0.797743 19.2013C1.30915 19.7127 2.00278 20 2.72602 20H13.635C14.3583 20 15.0519 19.7127 15.5633 19.2013C16.0747 18.6899 16.362 17.9962 16.362 17.273V2.727C16.362 2.00375 16.0747 1.31013 15.5633 0.79872C15.0519 0.287308 14.3583 0 13.635 0ZM14.544 17.273C14.544 17.5141 14.4483 17.7453 14.2778 17.9158C14.1073 18.0862 13.8761 18.182 13.635 18.182H2.72602C2.48494 18.182 2.25373 18.0862 2.08326 17.9158C1.91279 17.7453 1.81702 17.5141 1.81702 17.273V2.727C1.81702 2.48592 1.91279 2.25471 2.08326 2.08424C2.25373 1.91377 2.48494 1.818 2.72602 1.818H13.635C13.8761 1.818 14.1073 1.91377 14.2778 2.08424C14.4483 2.25471 14.544 2.48592 14.544 2.727V17.273ZM12.317 11.064C12.2705 11.0279 12.218 11.0002 12.162 10.982C12.1078 10.9541 12.0494 10.9355 11.989 10.927C11.8723 10.8998 11.7508 10.8998 11.634 10.927L11.47 10.982L11.306 11.064L11.17 11.173C11.0039 11.3471 10.9096 11.5774 10.906 11.818C10.9068 11.9669 10.9441 12.1134 11.0147 12.2445C11.0854 12.3756 11.1871 12.4874 11.3111 12.57C11.435 12.6525 11.5774 12.7034 11.7256 12.718C11.8738 12.7327 12.0233 12.7107 12.161 12.654C12.2712 12.6079 12.3727 12.5433 12.461 12.463C12.5453 12.3781 12.612 12.2775 12.6573 12.1668C12.7026 12.0561 12.7256 11.9376 12.725 11.818C12.7214 11.5774 12.6271 11.3471 12.461 11.173L12.317 11.064Z" fill="#676C86"/>
</svg>
