<svg width="20" height="20" viewBox="0 0 20 20" fill="none" xmlns="http://www.w3.org/2000/svg">
<path d="M16.999 6H15.999V3C15.999 2.20435 15.683 1.44129 15.1203 0.87868C14.5577 0.316071 13.7947 0 12.999 0H2.99902C2.20337 0 1.44031 0.316071 0.877703 0.87868C0.315094 1.44129 -0.000976562 2.20435 -0.000976562 3V15C8.91904e-06 15.1974 0.0594113 15.3901 0.169744 15.5539C0.280078 15.7176 0.436404 15.845 0.619023 15.92C0.737703 15.976 0.867847 16.0034 0.999023 16C1.13063 16.0008 1.26109 15.9755 1.38293 15.9258C1.50477 15.876 1.61558 15.8027 1.70902 15.71L4.51902 12.89H5.99902V14.33C5.99902 15.1256 6.31509 15.8887 6.8777 16.4513C7.44031 17.0139 8.20337 17.33 8.99902 17.33H15.919L18.289 19.71C18.3825 19.8027 18.4933 19.876 18.6151 19.9258C18.737 19.9755 18.8674 20.0008 18.999 20C19.1302 20.0034 19.2603 19.976 19.379 19.92C19.5616 19.845 19.718 19.7176 19.8283 19.5539C19.9386 19.3901 19.998 19.1974 19.999 19V9C19.999 8.20435 19.683 7.44129 19.1203 6.87868C18.5577 6.31607 17.7947 6 16.999 6ZM5.99902 9V10.89H4.10902C3.97742 10.8892 3.84695 10.9145 3.72512 10.9642C3.60328 11.014 3.49246 11.0873 3.39902 11.18L1.99902 12.59V3C1.99902 2.73478 2.10438 2.48043 2.29192 2.29289C2.47945 2.10536 2.73381 2 2.99902 2H12.999C13.2642 2 13.5186 2.10536 13.7061 2.29289C13.8937 2.48043 13.999 2.73478 13.999 3V6H8.99902C8.20337 6 7.44031 6.31607 6.8777 6.87868C6.31509 7.44129 5.99902 8.20435 5.99902 9ZM17.999 16.59L16.999 15.59C16.9064 15.4955 16.796 15.4203 16.6741 15.3688C16.5522 15.3173 16.4213 15.2906 16.289 15.29H8.99902C8.73381 15.29 8.47945 15.1846 8.29192 14.9971C8.10438 14.8096 7.99902 14.5552 7.99902 14.29V9C7.99902 8.73478 8.10438 8.48043 8.29192 8.29289C8.47945 8.10536 8.73381 8 8.99902 8H16.999C17.2642 8 17.5186 8.10536 17.7061 8.29289C17.8937 8.48043 17.999 8.73478 17.999 9V16.59Z" fill="#676C86"/>
</svg>
