<svg width="25" height="20" viewBox="0 0 25 20" fill="none" xmlns="http://www.w3.org/2000/svg">
<path d="M21.121 0.527832H4.25804C3.29955 0.527832 2.38032 0.908592 1.70256 1.58635C1.0248 2.2641 0.644043 3.18334 0.644043 4.14183V16.1868C0.644043 16.6614 0.737522 17.1314 0.919142 17.5698C1.10076 18.0083 1.36697 18.4067 1.70256 18.7423C2.03815 19.0779 2.43655 19.3441 2.87503 19.5257C3.3135 19.7074 3.78345 19.8008 4.25804 19.8008H21.121C21.5956 19.8008 22.0656 19.7074 22.5041 19.5257C22.9425 19.3441 23.3409 19.0779 23.6765 18.7423C24.0121 18.4067 24.2783 18.0083 24.4599 17.5698C24.6416 17.1314 24.735 16.6614 24.735 16.1868V4.14183C24.735 3.18334 24.3543 2.2641 23.6765 1.58635C22.9988 0.908592 22.0795 0.527832 21.121 0.527832ZM4.25804 2.93683H21.121C21.4393 2.93683 21.7445 3.06326 21.9696 3.2883C22.1946 3.51335 22.321 3.81857 22.321 4.13683L12.685 10.0148L3.05304 4.14183C3.05238 3.9834 3.0831 3.82641 3.14342 3.67992C3.20374 3.53342 3.29248 3.40032 3.4045 3.28829C3.51653 3.17627 3.64963 3.08753 3.79613 3.02721C3.94262 2.96689 4.09961 2.93617 4.25804 2.93683ZM22.326 16.1868C22.326 16.5051 22.1996 16.8103 21.9746 17.0354C21.7495 17.2604 21.4443 17.3868 21.126 17.3868H4.25804C3.93978 17.3868 3.63456 17.2604 3.40951 17.0354C3.18447 16.8103 3.05804 16.5051 3.05804 16.1868V6.88683L12.068 12.3868C12.2505 12.4922 12.4574 12.5476 12.668 12.5476C12.8787 12.5476 13.0856 12.4922 13.268 12.3868L22.326 6.88683V16.1868Z" fill="#676C86"/>
</svg>
