<svg width="18" height="21" viewBox="0 0 18 21" fill="none" xmlns="http://www.w3.org/2000/svg">
<path d="M10.4402 12.6H6.24023C5.96176 12.6 5.69469 12.7106 5.49777 12.9075C5.30086 13.1045 5.19023 13.3715 5.19023 13.65C5.19023 13.9285 5.30086 14.1955 5.49777 14.3925C5.69469 14.5894 5.96176 14.7 6.24023 14.7H10.4402C10.7187 14.7 10.9858 14.5894 11.1827 14.3925C11.3796 14.1955 11.4902 13.9285 11.4902 13.65C11.4902 13.3715 11.3796 13.1045 11.1827 12.9075C10.9858 12.7106 10.7187 12.6 10.4402 12.6V12.6ZM14.6402 2.1H13.4012C13.1846 1.48727 12.7838 0.956548 12.2537 0.580585C11.7235 0.204622 11.0901 0.00182649 10.4402 0H8.34023C7.69034 0.00182649 7.05692 0.204622 6.52682 0.580585C5.99671 0.956548 5.59586 1.48727 5.37923 2.1H4.14023C3.3048 2.1 2.50359 2.43187 1.91285 3.02261C1.32211 3.61335 0.990234 4.41457 0.990234 5.25V17.85C0.990234 18.6854 1.32211 19.4866 1.91285 20.0774C2.50359 20.6681 3.3048 21 4.14023 21H14.6402C15.4757 21 16.2769 20.6681 16.8676 20.0774C17.4584 19.4866 17.7902 18.6854 17.7902 17.85V5.25C17.7902 4.41457 17.4584 3.61335 16.8676 3.02261C16.2769 2.43187 15.4757 2.1 14.6402 2.1V2.1ZM7.29023 3.15C7.29023 2.87152 7.40086 2.60445 7.59777 2.40754C7.79469 2.21062 8.06176 2.1 8.34023 2.1H10.4402C10.7187 2.1 10.9858 2.21062 11.1827 2.40754C11.3796 2.60445 11.4902 2.87152 11.4902 3.15V4.2H7.29023V3.15ZM15.6902 17.85C15.6902 18.1285 15.5796 18.3955 15.3827 18.5925C15.1858 18.7894 14.9187 18.9 14.6402 18.9H4.14023C4.00235 18.9 3.86581 18.8728 3.73842 18.8201C3.61102 18.7673 3.49527 18.69 3.39777 18.5925C3.30027 18.495 3.22293 18.3792 3.17016 18.2518C3.11739 18.1244 3.09023 17.9879 3.09023 17.85V5.25C3.09023 5.11211 3.11739 4.97557 3.17016 4.84818C3.22293 4.72079 3.30027 4.60504 3.39777 4.50754C3.49527 4.41004 3.61102 4.33269 3.73842 4.27993C3.86581 4.22716 4.00235 4.2 4.14023 4.2H5.19023V5.25C5.19023 5.38789 5.21739 5.52443 5.27016 5.65182C5.32293 5.77921 5.40027 5.89496 5.49777 5.99246C5.59527 6.08996 5.71103 6.16731 5.83842 6.22007C5.96581 6.27284 6.10235 6.3 6.24023 6.3H12.5402C12.6781 6.3 12.8147 6.27284 12.9421 6.22007C13.0694 6.16731 13.1852 6.08996 13.2827 5.99246C13.3802 5.89496 13.4575 5.77921 13.5103 5.65182C13.5631 5.52443 13.5902 5.38789 13.5902 5.25V4.2H14.6402C14.9187 4.2 15.1858 4.31062 15.3827 4.50754C15.5796 4.70445 15.6902 4.97152 15.6902 5.25V17.85ZM12.5402 8.4H6.24023C5.96176 8.4 5.69469 8.51062 5.49777 8.70754C5.30086 8.90445 5.19023 9.17152 5.19023 9.45C5.19023 9.72848 5.30086 9.99555 5.49777 10.1925C5.69469 10.3894 5.96176 10.5 6.24023 10.5H12.5402C12.8187 10.5 13.0858 10.3894 13.2827 10.1925C13.4796 9.99555 13.5902 9.72848 13.5902 9.45C13.5902 9.17152 13.4796 8.90445 13.2827 8.70754C13.0858 8.51062 12.8187 8.4 12.5402 8.4V8.4Z" fill="#676C86"/>
</svg>


