<svg width="20" height="21" viewBox="0 0 20 21" fill="none" xmlns="http://www.w3.org/2000/svg">
<path d="M4.99904 4.99123C4.80126 4.99123 4.60792 5.04988 4.44347 5.15976C4.27902 5.26964 4.15085 5.42582 4.07516 5.60854C3.99947 5.79127 3.97967 5.99234 4.01825 6.18632C4.05684 6.3803 4.15208 6.55848 4.29193 6.69833C4.43179 6.83819 4.60997 6.93343 4.80395 6.97201C4.99793 7.0106 5.199 6.99079 5.38172 6.91511C5.56445 6.83942 5.72063 6.71125 5.83051 6.5468C5.94039 6.38235 5.99904 6.18901 5.99904 5.99123C5.99904 5.72601 5.89368 5.47166 5.70615 5.28412C5.51861 5.09658 5.26426 4.99123 4.99904 4.99123ZM19.709 10.7712L10.229 1.31123C10.1358 1.21069 10.0229 1.1304 9.8973 1.07535C9.77172 1.0203 9.63616 0.991669 9.49904 0.991228H3.49904C3.36743 0.990467 3.23697 1.01569 3.11513 1.06546C2.9933 1.11522 2.88248 1.18855 2.78904 1.28123L0.28904 3.77123C0.196359 3.86467 0.123034 3.97548 0.0732689 4.09732C0.0235043 4.21916 -0.00172074 4.34962 -0.000959848 4.48123V10.4812C0.00272364 10.746 0.106306 10.9996 0.28904 11.1912L9.77904 20.6912C9.97067 20.874 10.2243 20.9775 10.489 20.9812C10.6206 20.982 10.7511 20.9568 10.8729 20.907C10.9948 20.8572 11.1056 20.7839 11.199 20.6912L19.709 12.1812C19.8017 12.0878 19.875 11.977 19.9248 11.8551C19.9746 11.7333 19.9998 11.6028 19.999 11.4712C19.9929 11.2099 19.8895 10.9603 19.709 10.7712ZM10.489 18.5812L1.99904 10.0812V4.89123L3.89904 2.99123H9.07904L17.579 11.4812L10.489 18.5812Z" fill="#676C86"/>
</svg>
