<svg width="22" height="20" viewBox="0 0 22 20" fill="none" xmlns="http://www.w3.org/2000/svg">
<path d="M20.7212 18.3L17.0112 14.621C18.4496 12.8258 19.1456 10.5477 18.956 8.25518C18.7664 5.96261 17.7057 3.8298 15.9919 2.29527C14.2782 0.760743 12.0416 -0.0588787 9.74208 0.00492935C7.44258 0.0687374 5.25491 1.01113 3.62887 2.63833C2.00284 4.26554 1.06202 6.45388 0.999869 8.75343C0.937715 11.053 1.75894 13.289 3.29471 15.0016C4.83047 16.7143 6.96404 17.7735 9.25674 17.9614C11.5494 18.1493 13.827 17.4517 15.6212 16.012L19.2992 19.69C19.3904 19.7834 19.4992 19.8579 19.6193 19.9092C19.7393 19.9605 19.8683 19.9877 19.9989 19.9892C20.1294 19.9907 20.259 19.9664 20.3802 19.9179C20.5014 19.8693 20.6118 19.7973 20.7052 19.706C20.7985 19.6147 20.873 19.506 20.9244 19.3859C20.9757 19.2659 21.0029 19.1369 21.0044 19.0063C21.0058 18.8758 20.9816 18.7462 20.933 18.625C20.8844 18.5038 20.8124 18.3934 20.7212 18.3ZM10.0212 16.011C8.6367 16.011 7.28332 15.6005 6.13218 14.8313C4.98104 14.0621 4.08383 12.9689 3.55401 11.6898C3.0242 10.4107 2.88558 9.00324 3.15567 7.64538C3.42577 6.28751 4.09246 5.04023 5.07142 4.06126C6.05039 3.08229 7.29767 2.41561 8.65554 2.14551C10.0134 1.87541 11.4209 2.01404 12.7 2.54385C13.979 3.07366 15.0723 3.97087 15.8415 5.12202C16.6106 6.27316 17.0212 7.62654 17.0212 9.01101C17.0212 10.8675 16.2837 12.648 14.9709 13.9608C13.6582 15.2735 11.8777 16.011 10.0212 16.011Z" fill="#676C86"/>
</svg>
