<svg width="19" height="18" viewBox="0 0 19 18" fill="none" xmlns="http://www.w3.org/2000/svg">
<path d="M18.0016 5.41402C18.0057 5.35976 18.0057 5.30527 18.0016 5.25102L16.2866 0.963018C16.2195 0.793541 16.1002 0.649839 15.9459 0.552746C15.7916 0.455654 15.6104 0.410215 15.4286 0.423018H3.42261C3.25048 0.422395 3.08215 0.473559 2.93948 0.56986C2.79681 0.666162 2.6864 0.803148 2.62261 0.963018L0.909609 5.25102C0.905473 5.30527 0.905473 5.35976 0.909609 5.41402C0.881205 5.46167 0.860928 5.51371 0.849609 5.56802C0.859068 6.16084 1.02203 6.74109 1.32261 7.25216C1.62318 7.76322 2.0511 8.18764 2.56461 8.48402V16.717C2.56461 16.9446 2.65501 17.1628 2.81591 17.3237C2.97682 17.4846 3.19505 17.575 3.42261 17.575H15.4286C15.6562 17.575 15.8744 17.4846 16.0353 17.3237C16.1962 17.1628 16.2866 16.9446 16.2866 16.717V8.52302C16.805 8.22372 17.2361 7.79394 17.537 7.27642C17.8378 6.75889 17.998 6.17163 18.0016 5.57302C18.0096 5.52199 18.0096 5.47004 18.0016 5.41902V5.41402ZM10.2836 15.86H8.56761V12.43H10.2826L10.2836 15.86ZM14.5716 15.86H11.9986V11.572C11.9986 11.3445 11.9082 11.1262 11.7473 10.9653C11.5864 10.8044 11.3682 10.714 11.1406 10.714H7.71061C7.59768 10.7136 7.48579 10.7355 7.38135 10.7785C7.2769 10.8214 7.18196 10.8845 7.10197 10.9643C7.02198 11.044 6.95851 11.1387 6.91521 11.243C6.8719 11.3473 6.84961 11.4591 6.84961 11.572V15.86H4.27961V8.99902C4.76756 8.99583 5.24921 8.88856 5.69239 8.68439C6.13558 8.48021 6.5301 8.18382 6.84961 7.81502C7.17149 8.18016 7.5674 8.47261 8.01103 8.67293C8.45466 8.87325 8.93585 8.97685 9.42261 8.97685C9.90937 8.97685 10.3906 8.87325 10.8342 8.67293C11.2778 8.47261 11.6737 8.18016 11.9956 7.81502C12.3155 8.1842 12.7105 8.48081 13.1542 8.685C13.5979 8.88919 14.0802 8.99625 14.5686 8.99902L14.5716 15.86ZM14.5716 7.28402C14.1168 7.28402 13.6805 7.10333 13.3589 6.78171C13.0373 6.46008 12.8566 6.02386 12.8566 5.56902C12.8605 5.45395 12.8413 5.33926 12.7999 5.23179C12.7586 5.12432 12.6961 5.02627 12.6161 4.94348C12.5361 4.86068 12.4402 4.79484 12.3342 4.74987C12.2282 4.70491 12.1142 4.68173 11.9991 4.68173C11.884 4.68173 11.77 4.70491 11.664 4.74987C11.558 4.79484 11.4622 4.86068 11.3821 4.94348C11.3021 5.02627 11.2396 5.12432 11.1983 5.23179C11.1569 5.33926 11.1377 5.45395 11.1416 5.56902C11.1416 6.02386 10.9609 6.46008 10.6393 6.78171C10.3177 7.10333 9.88146 7.28402 9.42661 7.28402C8.97176 7.28402 8.53555 7.10333 8.21392 6.78171C7.8923 6.46008 7.71161 6.02386 7.71161 5.56902C7.71554 5.45395 7.69627 5.33926 7.65494 5.23179C7.61362 5.12432 7.55109 5.02627 7.47108 4.94348C7.39106 4.86068 7.2952 4.79484 7.18921 4.74987C7.08321 4.70491 6.96925 4.68173 6.85411 4.68173C6.73897 4.68173 6.62501 4.70491 6.51901 4.74987C6.41302 4.79484 6.31716 4.86068 6.23714 4.94348C6.15713 5.02627 6.0946 5.12432 6.05327 5.23179C6.01195 5.33926 5.99268 5.45395 5.99661 5.56902C6.01372 6.02386 5.84943 6.46688 5.53991 6.8006C5.23038 7.13432 4.80096 7.33141 4.34611 7.34852C3.89126 7.36562 3.44825 7.20134 3.11453 6.89181C2.78081 6.58229 2.58372 6.15286 2.56661 5.69802L4.00561 2.13802H14.8496L16.2906 5.69702C16.2582 6.13002 16.0628 6.53461 15.7437 6.82914C15.4247 7.12368 15.0058 7.28624 14.5716 7.28402Z" fill="#39B558"/>
</svg>
