<svg width="25" height="25" viewBox="0 0 25 25" fill="none" xmlns="http://www.w3.org/2000/svg">
<path d="M23.9722 9.55487L21.6652 8.78587L22.7512 6.61287C22.8614 6.38537 22.8982 6.12929 22.8567 5.87996C22.8151 5.63063 22.6972 5.40034 22.5192 5.22087L19.9192 2.62087C19.7391 2.44116 19.5074 2.3222 19.2564 2.2806C19.0054 2.23901 18.7476 2.27686 18.5192 2.38887L16.3432 3.47587L15.5742 1.16887C15.4929 0.928336 15.3386 0.719128 15.1329 0.570365C14.9271 0.421602 14.6801 0.340683 14.4262 0.338872H10.7642C10.5082 0.338181 10.2585 0.41794 10.0504 0.566877C9.84224 0.715815 9.68615 0.926399 9.60419 1.16887L8.83519 3.47587L6.66219 2.38987C6.43469 2.2797 6.17861 2.24285 5.92928 2.2844C5.67995 2.32596 5.44966 2.44387 5.27019 2.62187L2.67019 5.22187C2.49048 5.40197 2.37151 5.63371 2.32992 5.88471C2.28832 6.13571 2.32618 6.39343 2.43819 6.62187L3.52519 8.79887L1.21819 9.56787C0.977812 9.64912 0.768719 9.80323 0.61997 10.0088C0.471221 10.2143 0.390207 10.4611 0.388188 10.7149V14.3769C0.387497 14.6328 0.467256 14.8825 0.616194 15.0907C0.765131 15.2988 0.975716 15.4549 1.21819 15.5369L3.52519 16.3059L2.43919 18.4789C2.32902 18.7064 2.29217 18.9625 2.33372 19.2118C2.37528 19.4611 2.49319 19.6914 2.67119 19.8709L5.27119 22.4709C5.45129 22.6506 5.68302 22.7695 5.93402 22.8111C6.18502 22.8527 6.44275 22.8149 6.67119 22.7029L8.84419 21.6169L9.61319 23.9239C9.69515 24.1663 9.85124 24.3769 10.0594 24.5259C10.2675 24.6748 10.5172 24.7546 10.7732 24.7539H14.4382C14.6941 24.7546 14.9438 24.6748 15.152 24.5259C15.3601 24.3769 15.5162 24.1663 15.5982 23.9239L16.3672 21.6169L18.5402 22.7029C18.7661 22.8101 19.0196 22.8453 19.2662 22.8038C19.5128 22.7623 19.7408 22.6461 19.9192 22.4709L22.5192 19.8709C22.6989 19.6908 22.8179 19.459 22.8595 19.208C22.9011 18.957 22.8632 18.6993 22.7512 18.4709L21.6652 16.2979L23.9722 15.5289C24.2126 15.4476 24.4217 15.2935 24.5704 15.088C24.7192 14.8824 24.8002 14.6356 24.8022 14.3819V10.7149C24.8029 10.4589 24.7231 10.2092 24.5742 10.0011C24.4252 9.79292 24.2147 9.63683 23.9722 9.55487ZM22.3612 13.4979L20.8962 13.9859C20.5594 14.0951 20.2503 14.2763 19.9905 14.5169C19.7307 14.7575 19.5264 15.0517 19.3916 15.3792C19.2569 15.7066 19.1951 16.0595 19.2104 16.4133C19.2256 16.767 19.3177 17.1132 19.4802 17.4279L20.1802 18.8199L18.8372 20.1629L17.4822 19.4309C17.1691 19.2748 16.8262 19.1878 16.4766 19.1758C16.127 19.1639 15.779 19.2272 15.456 19.3614C15.133 19.4957 14.8426 19.6979 14.6046 19.9541C14.3665 20.2104 14.1863 20.5149 14.0762 20.8469L13.5882 22.3119H11.6432L11.1552 20.8469C11.046 20.51 10.8648 20.201 10.6242 19.9412C10.3836 19.6814 10.0894 19.477 9.76188 19.3423C9.43441 19.2076 9.08155 19.1457 8.72779 19.161C8.37402 19.1763 8.02781 19.2684 7.71319 19.4309L6.32119 20.1309L4.97819 18.7839L5.71019 17.4289C5.87266 17.1142 5.96473 16.768 5.98003 16.4143C5.99532 16.0605 5.93346 15.7076 5.79874 15.3802C5.66402 15.0527 5.45967 14.7585 5.19987 14.5179C4.94006 14.2773 4.63102 14.0961 4.29419 13.9869L2.82919 13.4989V11.5989L4.29419 11.1109C4.63184 11.0018 4.94165 10.8205 5.20205 10.5795C5.46245 10.3384 5.66718 10.0435 5.80197 9.71532C5.93676 9.3871 5.99838 9.03344 5.98253 8.67897C5.96668 8.3245 5.87374 7.97775 5.71019 7.66287L5.01019 6.30787L6.35719 4.96487L7.71219 5.66487C8.02681 5.82734 8.37302 5.91942 8.72678 5.93471C9.08055 5.95 9.43341 5.88814 9.76088 5.75342C10.0884 5.61871 10.3826 5.41436 10.6232 5.15455C10.8638 4.89475 11.045 4.58571 11.1542 4.24887L11.6422 2.78387H13.5422L14.0302 4.24887C14.1397 4.58617 14.3213 4.89556 14.5625 5.15552C14.8038 5.41548 15.0987 5.61976 15.4269 5.75415C15.755 5.88854 16.1086 5.94981 16.4628 5.9337C16.8171 5.9176 17.1636 5.82449 17.4782 5.66087L18.8702 4.96087L20.2132 6.30387L19.4812 7.65887C19.3251 7.97191 19.2381 8.31484 19.2262 8.66443C19.2142 9.01401 19.2775 9.36209 19.4118 9.68508C19.546 10.0081 19.7482 10.2984 20.0044 10.5365C20.2607 10.7745 20.5652 10.9547 20.8972 11.0649L22.3622 11.5529L22.3612 13.4979ZM12.5952 7.66287C11.6294 7.66287 10.6853 7.94925 9.88234 8.48581C9.07933 9.02236 8.45347 9.78498 8.08388 10.6772C7.7143 11.5695 7.6176 12.5513 7.80601 13.4985C7.99443 14.4457 8.45949 15.3158 9.14239 15.9987C9.82528 16.6816 10.6954 17.1466 11.6426 17.335C12.5898 17.5235 13.5716 17.4268 14.4638 17.0572C15.3561 16.6876 16.1187 16.0617 16.6553 15.2587C17.1918 14.4557 17.4782 13.5116 17.4782 12.5459C17.4782 11.2508 16.9637 10.0088 16.048 9.09307C15.1322 8.17733 13.8902 7.66287 12.5952 7.66287ZM12.5952 14.9869C12.1124 14.9869 11.6405 14.8437 11.239 14.5755C10.8376 14.3073 10.5248 13.926 10.34 13.48C10.1552 13.034 10.1069 12.5432 10.2011 12.0697C10.2953 11.5961 10.5278 11.1612 10.8691 10.8198C11.2105 10.4784 11.6455 10.246 12.119 10.1518C12.5925 10.0576 13.0833 10.1059 13.5293 10.2907C13.9754 10.4754 14.3566 10.7883 14.6248 11.1897C14.893 11.5911 15.0362 12.0631 15.0362 12.5459C15.0363 12.8665 14.9733 13.184 14.8507 13.4803C14.7281 13.7766 14.5483 14.0458 14.3216 14.2726C14.0949 14.4993 13.8258 14.6792 13.5295 14.802C13.2333 14.9247 12.9158 14.9879 12.5952 14.9879V14.9869Z" fill="#676C86"/>
</svg>
