<svg width="27" height="6" viewBox="0 0 27 6" fill="none" xmlns="http://www.w3.org/2000/svg">
<path d="M13.5001 0.286133C12.935 0.286133 12.3826 0.453693 11.9128 0.767624C11.443 1.08156 11.0768 1.52776 10.8605 2.04981C10.6443 2.57186 10.5877 3.1463 10.698 3.70051C10.8082 4.25471 11.0803 4.76378 11.4799 5.16334C11.8794 5.5629 12.3885 5.835 12.9427 5.94524C13.4969 6.05547 14.0713 5.9989 14.5934 5.78266C15.1154 5.56642 15.5616 5.20023 15.8756 4.7304C16.1895 4.26057 16.3571 3.70819 16.3571 3.14313C16.3571 2.38541 16.0561 1.65872 15.5203 1.12293C14.9845 0.587137 14.2578 0.286133 13.5001 0.286133ZM3.50007 0.286133C2.93501 0.286133 2.38263 0.453693 1.9128 0.767624C1.44297 1.08156 1.07678 1.52776 0.860544 2.04981C0.644304 2.57186 0.587726 3.1463 0.697964 3.70051C0.808202 4.25471 1.0803 4.76378 1.47986 5.16334C1.87942 5.5629 2.38849 5.835 2.94269 5.94524C3.4969 6.05547 4.07135 5.9989 4.59339 5.78266C5.11544 5.56642 5.56165 5.20023 5.87558 4.7304C6.18951 4.26057 6.35707 3.70819 6.35707 3.14313C6.35707 2.38558 6.0562 1.65905 5.52063 1.12328C4.98505 0.58752 4.25862 0.286398 3.50107 0.286133H3.50007ZM23.5001 0.286133C22.935 0.286133 22.3826 0.453693 21.9128 0.767624C21.443 1.08156 21.0768 1.52776 20.8605 2.04981C20.6443 2.57186 20.5877 3.1463 20.698 3.70051C20.8082 4.25471 21.0803 4.76378 21.4799 5.16334C21.8794 5.5629 22.3885 5.835 22.9427 5.94524C23.4969 6.05547 24.0713 5.9989 24.5934 5.78266C25.1154 5.56642 25.5616 5.20023 25.8756 4.7304C26.1895 4.26057 26.3571 3.70819 26.3571 3.14313C26.3571 2.76786 26.2831 2.39627 26.1395 2.04957C25.9959 1.70288 25.7853 1.38789 25.5199 1.12257C25.2545 0.857265 24.9394 0.646841 24.5927 0.503322C24.246 0.359803 23.8743 0.286002 23.4991 0.286133H23.5001Z" fill="#676C86"/>
</svg>
